# xmcd
#
# Track frame offsets: 
#        150
#        16657
#        30917
#        44242
#        63820
#        80445
#        98907
#        121685
#        137870
#
# Disc length: 2084 seconds
#
# Revision: 4
# Processed by: cddbd v1.5.2PL0 Copyright (c) Steve Scherf et al.
# Submitted via: ExactAudioCopy v0.95b4
#
DISCID=68082209
DTITLE=Johnny Winter - Nothin' But The Blues
DYEAR=1977
DGENRE=Blues
TTITLE0=Tired Of Tryin'
TTITLE1=TV Mama
TTITLE2=Sweet Love And Evil Woman
TTITLE3=Everybody's Blues
TTITLE4=Drinkin' Blues
TTITLE5=Mad Blues
TTITLE6=It Was Rainin'
TTITLE7=Bladie Mae
TTITLE8=Walking Thru The Park
EXTD=
EXTT0=
EXTT1=
EXTT2=
EXTT3=
EXTT4=
EXTT5=
EXTT6=
EXTT7=
EXTT8=
PLAYORDER=
